<svg width="16" height="16" viewBox="0 0 16 16" fill="none"
  xmlns="http://www.w3.org/2000/svg">
  <path d="M12.9792 3.31882C13.2039 3.11207 13.5028 2.99776 13.813 3.00003C14.1232 3.0023 14.4203 3.12096 14.6417 3.33098C14.8631 3.541 14.9914 3.82594 14.9996 4.12569C15.0078 4.42543 14.8952 4.71653 14.6856 4.93756L8.32264 12.6305C8.21323 12.7444 8.08117 12.8358 7.93437 12.8993C7.78757 12.9627 7.62904 12.9969 7.46826 12.9998C7.30748 13.0027 7.14775 12.9742 6.99862 12.916C6.8495 12.8579 6.71403 12.7712 6.60033 12.6613L2.38068 8.58205C2.26316 8.4762 2.16891 8.34855 2.10354 8.20672C2.03817 8.06489 2.00302 7.91178 2.00019 7.75653C1.99735 7.60128 2.02689 7.44707 2.08705 7.30309C2.1472 7.15912 2.23674 7.02834 2.35031 6.91854C2.46389 6.80875 2.59918 6.72219 2.7481 6.66404C2.89703 6.60588 3.05655 6.57732 3.21715 6.58006C3.37774 6.5828 3.53612 6.61678 3.68283 6.67998C3.82955 6.74318 3.96159 6.83429 4.07109 6.94789L7.41045 10.1746L12.9489 3.35274C12.9589 3.34087 12.9696 3.32954 12.9808 3.31882H12.9792Z" fill="#FEFEFE"/>
</svg>
