<svg width="0" height="0" class="hidden">
  <symbol xmlns="http://www.w3.org/2000/svg" fill="currentColor" viewBox="0 0 16 16" id="cart">
    <path fill-rule="evenodd" d="M10.5 3.5a2.5 2.5 0 00-5 0V4h5v-.5zm1 0V4H15v10a2 2 0 01-2 2H3a2 2 0 01-2-2V4h3.5v-.5a3.5 3.5 0 117 0zm-.646 5.354a.5.5 0 00-.708-.708L7.5 10.793 6.354 9.646a.5.5 0 10-.708.708l1.5 1.5a.5.5 0 00.708 0l3-3z" fill="#fff"></path>
  </symbol>
  <symbol fill="#828282" xmlns="http://www.w3.org/2000/svg" viewBox="0 0 24 24" id="close">
    <path d="M13.414 12l5.293 5.293a1 1 0 01-1.414 1.414L12 13.414l-5.293 5.293a1 1 0 11-1.414-1.414L10.586 12 5.293 6.707a1 1 0 011.414-1.414L12 10.586l5.293-5.293a1 1 0 011.414 1.414L13.414 12z" fill-rule="evenodd"></path>
  </symbol>
  <symbol fill="none" xmlns="http://www.w3.org/2000/svg" viewBox="0 0 18 18" id="delete">
    <path fill-rule="evenodd" clip-rule="evenodd" d="M9 16.5a7.5 7.5 0 100-15 7.5 7.5 0 000 15zM9 18A9 9 0 109 0a9 9 0 000 18zM5.47 5.47c.3-.3.77-.3 1.06 0L9 7.94l2.47-2.47a.75.75 0 011.06 1.06L10.06 9l2.47 2.47a.75.75 0 11-1.06 1.06L9 10.06l-2.47 2.47a.75.75 0 01-1.06-1.06L7.94 9 5.47 6.53a.75.75 0 010-1.06z" fill="#E35959"></path>
  </symbol>
  <symbol xmlns="http://www.w3.org/2000/svg" fill="currentColor" viewBox="0 0 24 24" id="filters">
    <path d="M16 13c1.306 0 2.417.835 2.83 2H20a1 1 0 010 2h-1.17A3.001 3.001 0 1116 13zm-6 2a1 1 0 010 2H4a1 1 0 010-2h6zm6 0a1 1 0 100 2 1 1 0 000-2zM8 5a3 3 0 11-2.83 4H4a1 1 0 110-2h1.17A3.001 3.001 0 018 5zm12 2a1 1 0 010 2h-6a1 1 0 010-2h6zM8 7a1 1 0 100 2 1 1 0 000-2z" fill-rule="evenodd"></path>
  </symbol>
  <symbol xmlns="http://www.w3.org/2000/svg" fill="#405CDA" viewBox="0 0 10 10" id="nav-arrow-left">
    <path d="M2.26 1.32C1.9 1 1.9.57 2.26.24a.8.8 0 011.14 0l4.34 4.22c.35.32.35.76 0 1.08L3.4 9.76a.8.8 0 01-1.14 0c-.35-.33-.35-.76 0-1.08L5.8 5 2.26 1.32z"></path>
  </symbol>
  <symbol xmlns="http://www.w3.org/2000/svg" fill="currentColor" viewBox="0 0 10 10" id="nav-back">
    <path d="M7.74 8.68c.35.32.35.75 0 1.08a.8.8 0 01-1.14 0L2.26 5.54c-.35-.32-.35-.76 0-1.08L6.6.24a.8.8 0 011.14 0c.35.33.35.76 0 1.08L4.2 5l3.54 3.68z"></path>
  </symbol>
  <symbol xmlns="http://www.w3.org/2000/svg" fill="#828282" viewBox="0 0 56 57" id="search">
    <path fill-rule="evenodd" d="M54.3 49.2l-12-12.1c3-4 4.7-8.7 4.7-13.7A23.1 23.1 0 0023.7.5 23.1 23.1 0 00.5 23.4a23.1 23.1 0 0023.2 22.9c4.4 0 8.6-1.2 12.3-3.4l12 12.3a4.3 4.3 0 006.2.1 4.3 4.3 0 000-6zM23.7 9.1c8.1 0 14.6 6.4 14.6 14.3s-6.5 14.3-14.6 14.3c-8 0-14.5-6.4-14.5-14.3S15.7 9.1 23.7 9.1z" clip-rule="evenodd"></path>
  </symbol>
  <symbol xmlns="http://www.w3.org/2000/svg" viewBox="0 0 24 24" id="sort">
    <path fill="#252525" fill-rule="evenodd" d="M7 4a1 1 0 011 1v12.586l2.293-2.293a1 1 0 011.414 1.414l-4 4a1 1 0 01-1.414 0l-4-4a1 1 0 111.414-1.414L6 17.586V5a1 1 0 011-1zm9.293-.707a1 1 0 011.414 0l4 4a1 1 0 01-1.414 1.414L18 6.414V19a1 1 0 11-2 0V6.414l-2.293 2.293a1 1 0 11-1.414-1.414z"></path>
  </symbol>
  <symbol xmlns="http://www.w3.org/2000/svg" viewBox="0 0 45.532 45.532" id="user">
    <path d="M22.766.001C10.194.001 0 10.193 0 22.766s10.193 22.765 22.766 22.765c12.574 0 22.766-10.192 22.766-22.765S35.34.001 22.766.001zm0 6.807a7.53 7.53 0 11.001 15.06 7.53 7.53 0 01-.001-15.06zm-.005 32.771a16.708 16.708 0 01-10.88-4.012 3.209 3.209 0 01-1.126-2.439c0-4.217 3.413-7.592 7.631-7.592h8.762c4.219 0 7.619 3.375 7.619 7.592a3.2 3.2 0 01-1.125 2.438 16.702 16.702 0 01-10.881 4.013z" fill="#fff"></path>
  </symbol>
</svg>