<svg xmlns="http://www.w3.org/2000/svg" viewBox="0 0 45.532 45.532">
  <defs/>
  <path d="M22.766.001C10.194.001 0 10.193 0 22.766s10.193 22.765 22.766 22.765c12.574 0 22.766-10.192 22.766-22.765S35.34.001 22.766.001zm0 6.807c4.16 0 7.531 3.372 7.531 7.53 0 4.159-3.371 7.53-7.531 7.53-4.158 0-7.529-3.371-7.529-7.53 0-4.158 3.371-7.53 7.529-7.53zm-.005 32.771c-4.149 0-7.949-1.511-10.88-4.012a3.2088 3.2088 0 01-1.126-2.439c0-4.217 3.413-7.592 7.631-7.592h8.762c4.219 0 7.619 3.375 7.619 7.592 0 .938-.41 1.829-1.125 2.438-2.93 2.502-6.731 4.013-10.881 4.013z" fill="#ffffff"/>
</svg>